<svg width="260" height="60" viewBox="0 0 260 60" fill="none" xmlns="http://www.w3.org/2000/svg">
<path d="M80.4076 16.6783L90.8229 3.49805H101.337L88.3173 18.642L102.517 35.4631H91.5098L80.4076 21.6127V35.4631H71.9062V3.49805H80.4076V16.6783Z" fill="white"/>
<path d="M118.681 14.0447H126.543V35.467H118.681V33.1199C116.862 35.5638 114.015 36.1874 111.851 36.1874C109.493 36.1874 106.594 35.5173 103.942 32.7829C101.829 30.5791 100.797 28.1351 100.797 24.9243C100.797 20.9001 102.417 18.0727 104.188 16.3453C106.054 14.5249 108.953 13.3281 112.098 13.3281C115.636 13.3281 117.748 15.102 118.681 16.109V14.0485V14.0447ZM110.426 21.2332C109.346 22.2402 108.854 23.6307 108.854 24.7306C108.854 25.9778 109.394 27.3179 110.378 28.2281C111.212 28.995 112.59 29.665 113.916 29.665C115.242 29.665 116.469 29.1383 117.454 28.1777C118.141 27.5077 118.927 26.4542 118.927 24.7268C118.927 23.7198 118.633 22.3796 117.403 21.2293C116.664 20.5593 115.536 19.8389 113.865 19.8389C112.884 19.8389 111.554 20.1758 110.426 21.2293V21.2332Z" fill="white"/>
<path d="M130.518 14.044H138.38V17.5414C139.166 16.1045 140.298 15.144 141.473 14.5707C142.652 13.9472 144.078 13.707 145.551 13.707C145.749 13.707 146.091 13.7535 147.123 13.8039V21.0389C146.73 20.8452 145.65 20.272 143.732 20.272C142.7 20.272 141.274 20.4153 140.147 21.4223C138.475 22.9096 138.38 25.1599 138.38 26.3102V35.4624H130.518V14.0401V14.044Z" fill="white"/>
<path d="M158.623 20.3216V35.4656H150.761V20.3216H148.256V14.0433H150.761V6.99805H158.623V14.0433H163.095V20.3216H158.623Z" fill="white"/>
<path d="M186.725 32.6396C183.826 35.4205 180.435 36.1874 176.897 36.1874C173.705 36.1874 170.167 35.5638 167.121 32.6396C164.715 30.3389 163.73 27.6084 163.73 24.7306C163.73 20.8962 165.497 18.4058 167.121 16.872C168.94 15.1485 172.133 13.3242 176.897 13.3242C181.662 13.3242 184.906 15.1949 186.725 16.872C188.345 18.4058 190.116 20.8962 190.116 24.7306C190.116 27.6045 189.135 30.3389 186.725 32.6396ZM173.411 21.2332C172.426 22.1434 171.886 23.4873 171.886 24.7306C171.886 25.9739 172.526 27.2714 173.411 28.1351C174.344 29.0453 175.623 29.572 176.949 29.572C178.275 29.572 179.502 29.0453 180.439 28.1351C181.42 27.2249 181.964 25.9778 181.964 24.7306C181.964 23.5803 181.424 22.1898 180.439 21.2332C179.554 20.4198 178.18 19.8427 176.949 19.8427C175.718 19.8427 174.297 20.4159 173.411 21.2332Z" fill="white"/>
<path d="M201.657 20.3224V35.4663H193.795V20.3224H191.043V14.044H193.795V10.4497C193.795 8.14909 194.041 5.70514 195.808 3.40449C197.821 0.770758 200.819 0 203.424 0C204.897 0 206.076 0.286607 207.208 0.720398V7.33573C206.128 6.71215 205.195 6.61532 204.75 6.61532C203.571 6.61532 202.884 7.04524 202.538 7.42868C201.704 8.33886 201.653 9.96946 201.653 11.0229V14.0401H207.156V20.3185H201.653L201.657 20.3224Z" fill="white"/>
<path d="M218.657 20.3224V35.4663H210.795V20.3224H208.043V14.044H210.795V10.4497C210.795 8.14909 211.041 5.70514 212.808 3.40449C214.821 0.770758 217.819 0 220.424 0C221.897 0 223.076 0.286607 224.208 0.720398V7.33573C223.128 6.71215 222.195 6.61532 221.75 6.61532C220.571 6.61532 219.884 7.04524 219.538 7.42868C218.704 8.33886 218.653 9.96946 218.653 11.0229V14.0401H224.156V20.3185H218.653L218.657 20.3224Z" fill="white"/>
<path d="M249.016 26.1664H232.657C232.657 27.3167 233.098 28.8505 234.031 29.7607C234.523 30.2409 235.504 30.8141 237.275 30.8141C237.474 30.8141 238.847 30.7677 239.828 30.2371C240.321 29.9504 240.861 29.4702 241.202 28.8001H248.719C248.373 29.9969 247.686 31.674 246.066 33.2077C244.446 34.7415 241.889 36.1784 237.124 36.1784C234.225 36.1784 230.735 35.5549 228.035 32.9211C226.61 31.5307 224.791 28.8969 224.791 24.8224C224.791 21.2281 226.165 18.3543 228.083 16.53C229.901 14.8065 232.748 13.416 237.073 13.416C239.626 13.416 242.917 13.9428 245.522 16.3402C248.615 19.2141 249.013 22.9556 249.013 25.3492V26.1625L249.016 26.1664ZM241.794 21.7587C241.595 20.9454 241.107 20.0313 240.515 19.4581C239.483 18.4511 238.057 18.3078 237.271 18.3078C235.945 18.3078 234.912 18.6447 234.079 19.4581C233.539 20.0313 233.046 20.7982 232.899 21.7587H241.794Z" fill="white"/>
<path d="M259.971 0.53125V35.467H252.109V0.53125H259.971Z" fill="white"/>
<path d="M77.0567 59.4452H75.2937V48.829H72.1211V47.0977H80.2254V48.829H77.0528V59.4452H77.0567Z" fill="white"/>
<path d="M94.7748 59.4452H88.6758V47.0977H94.7748V48.8018H90.4388V52.1637H94.5009V53.8524H90.4388V57.7294H94.7748V59.4452Z" fill="white"/>
<path d="M108.489 48.6551C107.477 48.6551 106.679 49.0657 106.099 49.8868C105.519 50.7079 105.229 51.8427 105.229 53.2913C105.229 54.7398 105.507 55.9521 106.067 56.7306C106.623 57.5091 107.433 57.8964 108.489 57.8964C108.946 57.8964 109.391 57.8461 109.816 57.7415C110.244 57.6369 110.689 57.5052 111.15 57.3387V59.07C110.304 59.4379 109.347 59.62 108.275 59.62C106.699 59.62 105.484 59.0738 104.638 57.9777C103.792 56.8817 103.371 55.3169 103.371 53.2796C103.371 51.9976 103.578 50.8744 103.987 49.91C104.396 48.9456 104.991 48.2097 105.769 47.6984C106.548 47.1872 107.457 46.9315 108.505 46.9315C109.605 46.9315 110.626 47.1949 111.559 47.7255L110.923 49.4065C110.558 49.209 110.173 49.0347 109.768 48.8875C109.363 48.7403 108.934 48.6629 108.489 48.6629V48.6551Z" fill="white"/>
<path d="M128.771 59.4452H127V53.8795H122.029V59.4452H120.266V47.0977H122.029V52.1482H127V47.0977H128.771V59.4452Z" fill="white"/>
<path d="M147.39 59.4452H145.23L139.929 49.6075H139.869L139.905 50.1574C139.973 51.2032 140.008 52.1637 140.008 53.0274V59.4452H138.408V47.0977H140.548L145.837 56.8851H145.881C145.869 56.7573 145.853 56.2847 145.822 55.4714C145.79 54.658 145.778 54.0228 145.778 53.5658V47.0977H147.394V59.4452H147.39Z" fill="white"/>
<path d="M166.606 53.2563C166.606 55.2664 166.169 56.8273 165.287 57.9427C164.41 59.0582 163.167 59.6159 161.559 59.6159C159.951 59.6159 158.68 59.0621 157.81 57.9544C156.937 56.8467 156.5 55.2742 156.5 53.2369C156.5 51.1996 156.941 49.6349 157.818 48.5427C158.696 47.4504 159.947 46.9043 161.575 46.9043C163.203 46.9043 164.418 47.4582 165.291 48.5698C166.165 49.6775 166.606 51.2422 166.606 53.2563ZM158.374 53.2563C158.374 54.7745 158.64 55.9287 159.176 56.715C159.712 57.5012 160.506 57.8924 161.559 57.8924C162.611 57.8924 163.397 57.5051 163.929 56.7266C164.461 55.9481 164.731 54.7939 164.731 53.2563C164.731 51.7186 164.465 50.5915 163.937 49.8092C163.409 49.0268 162.619 48.6356 161.575 48.6356C160.53 48.6356 159.72 49.0268 159.18 49.8092C158.64 50.5915 158.374 51.7419 158.374 53.2563Z" fill="white"/>
<path d="M175.719 59.4452V47.0977H177.482V57.7139H182.048V59.4452H175.723H175.719Z" fill="white"/>
<path d="M200.274 53.2563C200.274 55.2664 199.837 56.8273 198.955 57.9427C198.078 59.0582 196.835 59.6159 195.227 59.6159C193.619 59.6159 192.348 59.0621 191.478 57.9544C190.605 56.8467 190.168 55.2742 190.168 53.2369C190.168 51.1996 190.609 49.6349 191.486 48.5427C192.364 47.4504 193.615 46.9043 195.243 46.9043C196.871 46.9043 198.086 47.4582 198.959 48.5698C199.833 49.6775 200.274 51.2422 200.274 53.2563ZM192.042 53.2563C192.042 54.7745 192.308 55.9287 192.844 56.715C193.38 57.5012 194.174 57.8924 195.227 57.8924C196.279 57.8924 197.065 57.5051 197.597 56.7266C198.129 55.9481 198.399 54.7939 198.399 53.2563C198.399 51.7186 198.133 50.5915 197.605 49.8092C197.077 49.0268 196.287 48.6356 195.243 48.6356C194.198 48.6356 193.388 49.0268 192.848 49.8092C192.308 50.5915 192.042 51.7419 192.042 53.2563Z" fill="white"/>
<path d="M213.797 52.749H217.764V58.9499C217.117 59.1901 216.493 59.3644 215.894 59.4651C215.298 59.5658 214.651 59.6161 213.956 59.6161C212.324 59.6161 211.065 59.0622 210.18 57.9545C209.294 56.8468 208.854 55.2859 208.854 53.2719C208.854 51.2579 209.354 49.728 210.35 48.6048C211.347 47.4815 212.721 46.92 214.472 46.92C215.596 46.92 216.664 47.1678 217.673 47.6636L217.053 49.3445C216.18 48.8836 215.302 48.6512 214.428 48.6512C213.277 48.6512 212.368 49.0657 211.701 49.8945C211.033 50.7234 210.696 51.8543 210.696 53.2913C210.696 54.8018 210.998 55.9482 211.601 56.7345C212.205 57.5207 213.07 57.9119 214.202 57.9119C214.774 57.9119 215.381 57.8306 216.033 57.6679V54.4842H213.797V52.7529V52.749Z" fill="white"/>
<path d="M227.15 59.4452V47.0977H228.913V59.4452H227.15Z" fill="white"/>
<path d="M244.654 59.4452H238.555V47.0977H244.654V48.8018H240.318V52.1637H244.38V53.8524H240.318V57.7294H244.654V59.4452Z" fill="white"/>
<path d="M259.997 56.0954C259.997 57.1915 259.651 58.0552 258.957 58.6788C258.262 59.3024 257.309 59.6161 256.09 59.6161C254.871 59.6161 253.874 59.3992 253.096 58.9654V57.0559C253.588 57.3193 254.108 57.5285 254.664 57.6795C255.216 57.8306 255.732 57.908 256.209 57.908C256.908 57.908 257.42 57.757 257.753 57.451C258.087 57.1489 258.25 56.7383 258.25 56.2271C258.25 55.7662 258.099 55.375 257.793 55.0535C257.487 54.7321 256.86 54.3525 255.907 53.9148C254.922 53.4578 254.231 52.9388 253.826 52.354C253.421 51.7691 253.223 51.0642 253.223 50.2431C253.223 49.2128 253.54 48.4034 254.184 47.8108C254.823 47.2182 255.681 46.9238 256.757 46.9238C257.833 46.9238 258.818 47.1833 259.838 47.7023L259.278 49.3484C258.321 48.8875 257.464 48.6551 256.713 48.6551C256.141 48.6551 255.708 48.7984 255.415 49.0811C255.121 49.3639 254.97 49.7435 254.97 50.2082C254.97 50.5297 255.029 50.8047 255.149 51.0332C255.268 51.2617 255.462 51.4748 255.732 51.68C256.002 51.8853 256.491 52.1487 257.194 52.4818C257.984 52.8575 258.563 53.2099 258.933 53.5391C259.302 53.8683 259.572 54.2324 259.743 54.6469C259.913 55.0613 260.001 55.5416 260.001 56.0993L259.997 56.0954Z" fill="white"/>
<path d="M58.5644 2.03328C58.3182 2.37799 58.1674 2.62587 57.9807 2.83889C46.5609 16.1238 35.1371 29.4086 23.7172 42.6935C20.4453 46.5008 17.2132 50.3391 13.8896 54.1038C10.5304 57.9149 6.21817 59.8438 1.08004 59.9948C1.04033 59.9948 1.00063 59.9948 0.960918 59.9948C0.663113 60.0026 0.365308 59.9716 0 59.9522V15.7636C5.23343 15.0935 14.2272 19.5205 14.8148 29.5558C15.196 29.1259 15.4859 28.816 15.7638 28.4946C21.2633 22.2007 26.7548 15.903 32.2662 9.62076C36.6618 4.60505 42.2923 2.103 49.0267 1.94808C51.8936 1.88223 54.7605 1.93645 57.6273 1.9442C57.8854 1.9442 58.1475 1.98681 58.5605 2.02554L58.5644 2.03328Z" fill="#F15A29"/>
<path d="M53.6137 59.8161C53.2961 59.8626 53.1253 59.913 52.9546 59.913C49.512 59.8742 46.0654 59.9517 42.6307 59.758C38.0842 59.4985 34.0459 57.7944 30.5755 54.9437C29.2096 53.8205 28.0541 52.4572 26.7874 51.2139C26.3387 50.7724 26.3348 50.4122 26.7557 49.9242C29.5709 46.6823 32.3663 43.4211 35.1498 40.1522C35.6184 39.6022 35.9162 39.5829 36.4165 40.1522C40.8716 45.2725 45.3506 50.3695 49.8257 55.4705C50.8541 56.644 51.8984 57.806 52.9308 58.9796C53.1412 59.2158 53.3318 59.4676 53.6098 59.8123L53.6137 59.8161Z" fill="#00AEEF"/>
<path d="M14.8187 29.5671C14.1794 38.0222 10.3556 48.1427 1.08395 59.9983C1.04424 59.9983 1.00453 59.9983 0.964824 59.9983C0.667019 60.0061 0.369214 59.9751 0.00390625 59.9557V15.7671C5.23734 15.097 14.2311 19.524 14.8187 29.5593V29.5671Z" fill="#FF9233"/>
</svg>
